700 0 15 0           
4 LibG 19 ASM 223.0.1.1930 NT 24 Tue Oct 29 04:45:09 2019 
1 9.999999999999999547e-07 1.000000000000000036e-10 
body $-1 -1 $-1 $15 $-1 $16 #
body $-1 -1 $-1 $17 $-1 $18 #
body $-1 -1 $-1 $19 $-1 $20 #
body $-1 -1 $-1 $21 $-1 $22 #
body $-1 -1 $-1 $23 $-1 $24 #
body $-1 -1 $-1 $25 $-1 $26 #
body $-1 -1 $-1 $27 $-1 $28 #
body $-1 -1 $-1 $29 $-1 $30 #
body $-1 -1 $-1 $31 $-1 $32 #
body $-1 -1 $-1 $33 $-1 $34 #
body $-1 -1 $-1 $35 $-1 $36 #
body $-1 -1 $-1 $37 $-1 $38 #
body $-1 -1 $-1 $39 $-1 $40 #
body $-1 -1 $-1 $41 $-1 $42 #
body $-1 -1 $-1 $43 $-1 $44 #
lump $-1 -1 $-1 $-1 $45 $0 #
transform $-1 -1 1 0 0 0 1 0 0 0 1 0 0 0 1 no_rotate no_reflect no_shear #
lump $-1 -1 $-1 $-1 $46 $1 #
transform $-1 -1 1 0 0 0 1 0 0 0 1 0 0 0 1 no_rotate no_reflect no_shear #
lump $-1 -1 $-1 $-1 $47 $2 #
transform $-1 -1 1 0 0 0 1 0 0 0 1 0 0 0 1 no_rotate no_reflect no_shear #
lump $-1 -1 $-1 $-1 $48 $3 #
transform $-1 -1 1 0 0 0 1 0 0 0 1 0 0 0 1 no_rotate no_reflect no_shear #
lump $-1 -1 $-1 $-1 $49 $4 #
transform $-1 -1 1 0 0 0 1 0 0 0 1 0 0 0 1 no_rotate no_reflect no_shear #
lump $-1 -1 $-1 $-1 $50 $5 #
transform $-1 -1 1 0 0 0 1 0 0 0 1 0 0 0 1 no_rotate no_reflect no_shear #
lump $-1 -1 $-1 $-1 $51 $6 #
transform $-1 -1 1 0 0 0 1 0 0 0 1 0 0 0 1 no_rotate no_reflect no_shear #
lump $-1 -1 $-1 $-1 $52 $7 #
transform $-1 -1 1 0 0 0 1 0 0 0 1 0 0 0 1 no_rotate no_reflect no_shear #
lump $-1 -1 $-1 $-1 $53 $8 #
transform $-1 -1 1 0 0 0 1 0 0 0 1 0 0 0 1 no_rotate no_reflect no_shear #
lump $-1 -1 $-1 $-1 $54 $9 #
transform $-1 -1 1 0 0 0 1 0 0 0 1 0 0 0 1 no_rotate no_reflect no_shear #
lump $-1 -1 $-1 $-1 $55 $10 #
transform $-1 -1 1 0 0 0 1 0 0 0 1 0 0 0 1 no_rotate no_reflect no_shear #
lump $-1 -1 $-1 $-1 $56 $11 #
transform $-1 -1 1 0 0 0 1 0 0 0 1 0 0 0 1 no_rotate no_reflect no_shear #
lump $-1 -1 $-1 $-1 $57 $12 #
transform $-1 -1 1 0 0 0 1 0 0 0 1 0 0 0 1 no_rotate no_reflect no_shear #
lump $-1 -1 $-1 $-1 $58 $13 #
transform $-1 -1 1 0 0 0 1 0 0 0 1 0 0 0 1 no_rotate no_reflect no_shear #
lump $-1 -1 $-1 $-1 $59 $14 #
transform $-1 -1 1 0 0 0 1 0 0 0 1 0 0 0 1 no_rotate no_reflect no_shear #
shell $-1 -1 $-1 $-1 $-1 $60 $-1 $15 #
shell $-1 -1 $-1 $-1 $-1 $61 $-1 $17 #
shell $-1 -1 $-1 $-1 $-1 $62 $-1 $19 #
shell $-1 -1 $-1 $-1 $-1 $63 $-1 $21 #
shell $-1 -1 $-1 $-1 $-1 $64 $-1 $23 #
shell $-1 -1 $-1 $-1 $-1 $65 $-1 $25 #
shell $-1 -1 $-1 $-1 $-1 $66 $-1 $27 #
shell $-1 -1 $-1 $-1 $-1 $67 $-1 $29 #
shell $-1 -1 $-1 $-1 $-1 $68 $-1 $31 #
shell $-1 -1 $-1 $-1 $-1 $69 $-1 $33 #
shell $-1 -1 $-1 $-1 $-1 $70 $-1 $35 #
shell $-1 -1 $-1 $-1 $-1 $71 $-1 $37 #
shell $-1 -1 $-1 $-1 $-1 $72 $-1 $39 #
shell $-1 -1 $-1 $-1 $-1 $73 $-1 $41 #
shell $-1 -1 $-1 $-1 $-1 $74 $-1 $43 #
face $-1 -1 $-1 $75 $76 $45 $-1 $77 reversed single #
face $-1 -1 $-1 $78 $79 $46 $-1 $80 reversed single #
face $-1 -1 $-1 $81 $82 $47 $-1 $83 reversed single #
face $-1 -1 $-1 $84 $85 $48 $-1 $86 reversed single #
face $-1 -1 $-1 $87 $88 $49 $-1 $89 reversed single #
face $-1 -1 $-1 $90 $91 $50 $-1 $92 reversed single #
face $-1 -1 $-1 $93 $94 $51 $-1 $95 reversed single #
face $-1 -1 $-1 $96 $97 $52 $-1 $98 reversed single #
face $-1 -1 $-1 $99 $100 $53 $-1 $101 reversed single #
face $-1 -1 $-1 $102 $103 $54 $-1 $104 reversed single #
face $-1 -1 $-1 $105 $106 $55 $-1 $107 reversed single #
face $-1 -1 $-1 $108 $109 $56 $-1 $110 reversed single #
face $-1 -1 $-1 $111 $112 $57 $-1 $113 reversed single #
face $-1 -1 $-1 $114 $115 $58 $-1 $116 reversed single #
face $-1 -1 $-1 $117 $118 $59 $-1 $119 reversed single #
face $-1 -1 $-1 $120 $121 $45 $-1 $122 forward single #
loop $-1 -1 $-1 $123 $124 $60 #
cone-surface $-1 -1 $-1 5.301748115852865872 1.236786225914639073e-15 24.94276381871204151 -0.03413685896636883821 -0.9993908270190957621 0.007256013368105880372 8.576357246232577225 2.000683600744269106e-15 40.34858853026947401 1 I I 0 1 41.25 forward I I I I #
face $-1 -1 $-1 $125 $126 $46 $-1 $127 forward single #
loop $-1 -1 $-1 $128 $129 $61 #
cone-surface $-1 -1 $-1 4.843387908802600172 2.156415231075444083 24.94276381871203085 0.3753032976555822908 -0.9268736618541101313 0.007256013368105931546 22.37898008834852348 9.322810780596476832 33.37407600750160697 1 I I 0 1 41.25 forward I I I I #
face $-1 -1 $-1 $130 $131 $47 $-1 $132 forward single #
loop $-1 -1 $-1 $133 $134 $62 #
cone-surface $-1 -1 $-1 3.547561931522562162 3.939966678280579337 24.94276381871204151 0.7198501045894613037 -0.6940916201716770262 0.007256013368105876035 24.6865388895310609 25.81833655432044239 20.62888254907452179 1 I I 0 1 41.25 forward I I I I #
face $-1 -1 $-1 $135 $136 $48 $-1 $137 forward single #
loop $-1 -1 $-1 $138 $139 $63 #
cone-surface $-1 -1 $-1 1.638330267693893783 5.042262093337418705 24.9427638187120273 0.9399282888069248054 -0.3412948317371476969 0.007256013368105931546 13.97203248710308898 38.57084810008414877 4.316767890397892771 1 I I 0 1 41.25 forward I I I I #
face $-1 -1 $-1 $140 $141 $49 $-1 $142 forward single #
loop $-1 -1 $-1 $143 $144 $64 #
cone-surface $-1 -1 $-1 -0.5541835831822781167 5.272704584943164186 24.94276381871203796 0.9974843329092363264 0.07051493367094265052 0.007256013368105876035 -2.674334645864430815 39.14151389279061277 -12.74175515313366702 1 I I 0 1 41.25 forward I I I I #
face $-1 -1 $-1 $145 $146 $50 $-1 $147 forward single #
loop $-1 -1 $-1 $148 $149 $65 #
cone-surface $-1 -1 $-1 -2.650874057926438709 4.59144855279486741 24.94276381871203796 0.8825662739908610721 0.4701320264392658821 0.007256013368105931546 -14.23701571014592382 27.15270224283076317 -27.59711297547683273 1 I I 0 1 41.25 forward I I I I #
face $-1 -1 $-1 $150 $151 $51 $-1 $152 forward single #
loop $-1 -1 $-1 $153 $154 $66 #
cone-surface $-1 -1 $-1 -4.289204325620326053 3.116289353867719214 24.94276381871203085 0.6150444884365759979 0.7884590208208620554 0.007256013368105987058 -13.0645361605319188 10.53787483240475709 -37.68067925245939165 1 I I 0 1 41.25 forward I I I I #
face $-1 -1 $-1 $155 $156 $52 $-1 $157 forward single #
loop $-1 -1 $-1 $158 $159 $67 #
cone-surface $-1 -1 $-1 -5.185892199216453058 1.102295415056840033 24.94276381871203085 0.2411759233278413794 0.9704542875771969834 0.00725601336810584828 0.06722880770271499884 0.2917074029923272249 -41.24891376846733237 1 I I 0 1 41.25 forward I I I I #
face $-1 -1 $-1 $160 $161 $53 $-1 $162 forward single #
loop $-1 -1 $-1 $163 $164 $68 #
cone-surface $-1 -1 $-1 -5.185892199216455722 -1.102295415056838923 24.94276381871204151 -0.1743941499387568483 0.9846491917110073988 0.007256013368105903791 16.46848096960244234 3.194486363624097436 -37.68483635928995312 1 I I 0 1 41.25 forward I I I I #
face $-1 -1 $-1 $165 $166 $54 $-1 $167 forward single #
loop $-1 -1 $-1 $168 $169 $69 #
cone-surface $-1 -1 $-1 -4.2892043256203225 -3.116289353867721879 24.94276381871203796 -0.5598098903598294207 0.828589305340901694 0.007256013368105876035 25.28587560964078662 17.32533028514307816 -27.60470838760078038 1 I I 0 1 41.25 forward I I I I #
face $-1 -1 $-1 $170 $171 $55 $-1 $172 forward single #
loop $-1 -1 $-1 $173 $174 $70 #
cone-surface $-1 -1 $-1 -2.650874057926436933 -4.591448552794874516 24.94276381871204151 -0.8484294150244920951 0.5292588005798299911 0.007256013368105876035 20.68460069172946802 33.33331164764805976 -12.75147555479265549 1 I I 0 1 41.25 forward I I I I #
face $-1 -1 $-1 $175 $176 $56 $-1 $177 forward single #
loop $-1 -1 $-1 $178 $179 $71 #
cone-surface $-1 -1 $-1 -0.5541835831822792269 -5.272704584943164186 24.94276381871204507 -0.9903477860921582332 0.138414641033248742 0.007256013368105889913 5.709498299999548721 40.62532827747760678 4.30660324495776603 1 I I 0 1 41.25 forward I I I I #
face $-1 -1 $-1 $180 $181 $57 $-1 $182 forward single #
loop $-1 -1 $-1 $183 $184 $72 #
cone-surface $-1 -1 $-1 1.638330267693894671 -5.042262093337419593 24.94276381871204151 -0.9610260279173026277 -0.2763626674055200683 0.007256013368105876035 -9.729825469417658468 34.37596993316606842 20.62003121939280703 1 I I 0 1 41.25 forward I I I I #
face $-1 -1 $-1 $185 $186 $58 $-1 $187 forward single #
loop $-1 -1 $-1 $188 $189 $73 #
cone-surface $-1 -1 $-1 3.547561931522563938 -3.939966678280581114 24.94276381871204151 -0.7655341388681683457 -0.6433543599738593688 0.007256013368105931546 -15.41657122888941522 18.72067942677059449 33.36806846889204081 1 I I 0 1 41.25 forward I I I I #
face $-1 -1 $-1 $190 $191 $59 $-1 $192 forward single #
loop $-1 -1 $-1 $193 $194 $74 #
cone-surface $-1 -1 $-1 4.843387908802601949 -2.156415231075446748 24.94276381871204151 -0.4376744425494078494 -0.8991042390118441086 0.007256013368105931546 -7.587598735960256136 4.01916971254515154 40.34646354073444741 1 I I 0 1 41.25 forward I I I I #
face $-1 -1 $-1 $195 $196 $45 $-1 $197 forward single #
loop $-1 -1 $-1 $198 $199 $75 #
cone-surface $-1 -1 $-1 5.197792270443986062 1.212535515602587373e-15 24.45369001834513867 -0.03413685896636883821 -0.9993908270190957621 0.007256013368105880372 8.94020270516365656 2.085561086836450155e-15 42.06034683155364462 1 I I 0 1 43 forward I I I I #
loop $-1 -1 $-1 $-1 $200 $60 #
coedge $-1 -1 $-1 $124 $124 $201 $202 reversed $76 $-1 #
face $-1 -1 $-1 $203 $204 $46 $-1 $205 forward single #
loop $-1 -1 $-1 $206 $207 $78 #
cone-surface $-1 -1 $-1 4.748419518433923514 2.114132579485731078 24.45369001834513512 0.3753032976555822908 -0.9268736618541101313 0.007256013368105931546 23.32839136482391496 9.718323965227838812 34.78994589872894494 1 I I 0 1 43 forward I I I I #
loop $-1 -1 $-1 $-1 $208 $61 #
coedge $-1 -1 $-1 $129 $129 $209 $210 reversed $79 $-1 #
face $-1 -1 $-1 $211 $212 $47 $-1 $213 forward single #
loop $-1 -1 $-1 $214 $215 $81 #
cone-surface $-1 -1 $-1 3.478001893649569798 3.862712429686842697 24.45369001834513867 0.7198501045894613037 -0.6940916201716770262 0.007256013368105876035 25.73384659999601354 26.91365992329161116 21.50404726327768401 1 I I 0 1 43 forward I I I I #
loop $-1 -1 $-1 $-1 $216 $62 #
coedge $-1 -1 $-1 $134 $134 $217 $218 reversed $82 $-1 #
face $-1 -1 $-1 $219 $220 $48 $-1 $221 forward single #
loop $-1 -1 $-1 $222 $223 $84 #
cone-surface $-1 -1 $-1 1.606206144797933666 4.943394209154333474 24.45369001834513512 0.9399282888069248054 -0.3412948317371476969 0.007256013368105931546 14.56478538049534066 40.20718711039074833 4.499903497869315316 1 I I 0 1 43 forward I I I I #
loop $-1 -1 $-1 $-1 $224 $63 #
coedge $-1 -1 $-1 $139 $139 $225 $226 reversed $85 $-1 #
face $-1 -1 $-1 $227 $228 $49 $-1 $229 forward single #
loop $-1 -1 $-1 $230 $231 $87 #
cone-surface $-1 -1 $-1 -0.5433172384139987043 5.169318220532512775 24.45369001834513512 0.9974843329092363264 0.07051493367094265052 0.007256013368105876035 -2.787791267204133838 40.80206296703021707 -13.28231446266054938 1 I I 0 1 43 forward I I I I #
loop $-1 -1 $-1 $-1 $232 $64 #
coedge $-1 -1 $-1 $144 $144 $233 $234 reversed $88 $-1 #
face $-1 -1 $-1 $235 $236 $50 $-1 $237 forward single #
loop $-1 -1 $-1 $238 $239 $90 #
cone-surface $-1 -1 $-1 -2.598896135221995252 4.501420149798888382 24.45369001834514222 0.8825662739908610721 0.4701320264392658821 0.007256013368105931546 -14.84101031603089993 28.3046350652538905 -28.76789958655766455 1 I I 0 1 43 forward I I I I #
loop $-1 -1 $-1 $-1 $240 $65 #
coedge $-1 -1 $-1 $149 $149 $241 $242 reversed $91 $-1 #
face $-1 -1 $-1 $243 $244 $51 $-1 $245 forward single #
loop $-1 -1 $-1 $246 $247 $93 #
cone-surface $-1 -1 $-1 -4.205102280019927363 3.055185641046783473 24.45369001834513512 0.6150444884365759979 0.7884590208208620554 0.007256013368105987058 -13.61878920976660368 10.98493618893101598 -39.27925352377584289 1 I I 0 1 43 forward I I I I #
loop $-1 -1 $-1 $-1 $248 $66 #
coedge $-1 -1 $-1 $154 $154 $249 $250 reversed $94 $-1 #
face $-1 -1 $-1 $251 $252 $52 $-1 $253 forward single #
loop $-1 -1 $-1 $254 $255 $96 #
cone-surface $-1 -1 $-1 -5.08420803844750413 1.080681779467489445 24.45369001834513512 0.2411759233278413794 0.9704542875771969834 0.00725601336810584828 0.07008093893858813317 0.3040828685738192205 -42.99886768591746034 1 I I 0 1 43 forward I I I I #
loop $-1 -1 $-1 $-1 $256 $67 #
coedge $-1 -1 $-1 $159 $159 $257 $258 reversed $97 $-1 #
face $-1 -1 $-1 $259 $260 $53 $-1 $261 forward single #
loop $-1 -1 $-1 $262 $263 $99 #
cone-surface $-1 -1 $-1 -5.084208038447505018 -1.080681779467489445 24.45369001834513867 -0.1743941499387568483 0.9846491917110073988 0.007256013368105903791 17.16714379861587858 3.330010027535422079 -39.28358699271437615 1 I I 0 1 43 forward I I I I #
loop $-1 -1 $-1 $-1 $264 $68 #
coedge $-1 -1 $-1 $164 $164 $265 $266 reversed $100 $-1 #
face $-1 -1 $-1 $267 $268 $54 $-1 $269 forward single #
loop $-1 -1 $-1 $270 $271 $102 #
cone-surface $-1 -1 $-1 -4.205102280019924699 -3.055185641046787914 24.45369001834513512 -0.5598098903598294207 0.828589305340901694 0.007256013368105876035 26.35860972641342315 18.06034429724005719 -28.7758172282868756 1 I I 0 1 43 forward I I I I #
loop $-1 -1 $-1 $-1 $272 $69 #
coedge $-1 -1 $-1 $169 $169 $273 $274 reversed $103 $-1 #
face $-1 -1 $-1 $275 $276 $55 $-1 $277 forward single #
loop $-1 -1 $-1 $278 $279 $105 #
cone-surface $-1 -1 $-1 -2.598896135221990811 -4.50142014979888927 24.45369001834513867 -0.8484294150244920951 0.5292588005798299911 0.007256013368105876035 21.56212920592405524 34.74745214179070985 -13.29244724499597652 1 I I 0 1 43 forward I I I I #
loop $-1 -1 $-1 $-1 $280 $70 #
coedge $-1 -1 $-1 $174 $174 $281 $282 reversed $106 $-1 #
face $-1 -1 $-1 $283 $284 $56 $-1 $285 forward single #
loop $-1 -1 $-1 $286 $287 $108 #
cone-surface $-1 -1 $-1 -0.5433172384139997035 -5.16931822053251544 24.45369001834514222 -0.9903477860921582332 0.138414641033248742 0.007256013368105889913 5.951719439999529904 42.34882705288575977 4.489307625046884631 1 I I 0 1 43 forward I I I I #
loop $-1 -1 $-1 $-1 $288 $71 #
coedge $-1 -1 $-1 $179 $179 $289 $290 reversed $109 $-1 #
face $-1 -1 $-1 $291 $292 $57 $-1 $293 forward single #
loop $-1 -1 $-1 $294 $295 $111 #
cone-surface $-1 -1 $-1 1.606206144797935664 -4.943394209154332586 24.45369001834514222 -0.9610260279173026277 -0.2763626674055200683 0.007256013368105876035 -10.14260594387780223 35.83434441517917435 21.49482042263977988 1 I I 0 1 43 forward I I I I #
loop $-1 -1 $-1 $-1 $296 $72 #
coedge $-1 -1 $-1 $184 $184 $297 $298 reversed $112 $-1 #
face $-1 -1 $-1 $299 $300 $58 $-1 $301 forward single #
loop $-1 -1 $-1 $302 $303 $114 #
cone-surface $-1 -1 $-1 3.478001893649571574 -3.862712429686845361 24.45369001834514222 -0.7655341388681683457 -0.6433543599738593688 0.007256013368105931546 -16.07060758405442158 19.5148900691184366 34.78368349484503597 1 I I 0 1 43 forward I I I I #
loop $-1 -1 $-1 $-1 $304 $73 #
coedge $-1 -1 $-1 $189 $189 $305 $306 reversed $115 $-1 #
face $-1 -1 $-1 $307 $308 $59 $-1 $309 forward single #
loop $-1 -1 $-1 $310 $311 $117 #
cone-surface $-1 -1 $-1 4.748419518433927067 -2.114132579485731078 24.45369001834513867 -0.4376744425494078494 -0.8991042390118441086 0.007256013368105931546 -7.909496864152504969 4.189679942774340304 42.05813169094741966 1 I I 0 1 43 forward I I I I #
loop $-1 -1 $-1 $-1 $312 $74 #
coedge $-1 -1 $-1 $194 $194 $313 $314 reversed $118 $-1 #
face $-1 -1 $-1 $-1 $315 $45 $-1 $316 reversed single #
loop $-1 -1 $-1 $317 $201 $120 #
plane-surface $-1 -1 $-1 5.027107975612141288 -4.996954135095477589 24.48997008518566787 -0.03413685896636883821 -0.9993908270190957621 0.007256013368105880372 0.5197792270443986062 1.212535515602587472e-16 2.445369001834513778 forward_v I I I I #
loop $-1 -1 $-1 $-1 $318 $75 #
coedge $-1 -1 $-1 $199 $199 $319 $320 reversed $121 $-1 #
coedge $-1 -1 $-1 $200 $200 $321 $322 reversed $123 $-1 #
coedge $-1 -1 $-1 $201 $201 $124 $202 forward $196 $-1 #
edge $-1 -1 $-1 $323 0 $323 6.283185307179586232 $201 $324 forward @7 unknown #
face $-1 -1 $-1 $-1 $325 $46 $-1 $326 reversed single #
loop $-1 -1 $-1 $327 $209 $125 #
plane-surface $-1 -1 $-1 6.624936006711829251 -2.520235729784821022 24.48997008518565721 0.3753032976555822908 -0.9268736618541101313 0.007256013368105931546 1.356301823536274043 0.5650188351876652693 2.022671273181915641 forward_v I I I I #
loop $-1 -1 $-1 $-1 $328 $78 #
coedge $-1 -1 $-1 $207 $207 $329 $330 reversed $126 $-1 #
coedge $-1 -1 $-1 $208 $208 $331 $332 reversed $128 $-1 #
coedge $-1 -1 $-1 $209 $209 $129 $210 forward $204 $-1 #
edge $-1 -1 $-1 $333 0 $333 6.283185307179586232 $209 $334 forward @7 unknown #
face $-1 -1 $-1 $-1 $335 $47 $-1 $336 reversed single #
loop $-1 -1 $-1 $337 $217 $130 #
plane-surface $-1 -1 $-1 7.077252416596877538 0.3922543288284580099 24.48997008518566076 0.7198501045894613037 -0.6940916201716770262 0.007256013368105876035 1.496153872092791381 1.564747669958814535 1.250235306004516822 forward_v I I I I #
loop $-1 -1 $-1 $-1 $338 $81 #
coedge $-1 -1 $-1 $215 $215 $339 $340 reversed $131 $-1 #
coedge $-1 -1 $-1 $216 $216 $341 $342 reversed $133 $-1 #
coedge $-1 -1 $-1 $217 $217 $134 $218 forward $212 $-1 #
edge $-1 -1 $-1 $343 0 $343 6.283185307179586232 $217 $344 forward @7 unknown #
face $-1 -1 $-1 $-1 $345 $48 $-1 $346 reversed single #
loop $-1 -1 $-1 $347 $225 $135 #
plane-surface $-1 -1 $-1 6.305847588832556916 3.236920050468591548 24.48997008518565366 0.9399282888069248054 -0.3412948317371476969 0.007256013368105931546 0.8467898477032176352 2.337627157580857595 0.2616222963877509189 forward_v I I I I #
loop $-1 -1 $-1 $-1 $348 $84 #
coedge $-1 -1 $-1 $223 $223 $349 $350 reversed $136 $-1 #
coedge $-1 -1 $-1 $224 $224 $351 $352 reversed $138 $-1 #
coedge $-1 -1 $-1 $225 $225 $139 $226 forward $220 $-1 #
edge $-1 -1 $-1 $353 0 $353 6.283185307179586232 $225 $354 forward @7 unknown #
face $-1 -1 $-1 $-1 $355 $49 $-1 $356 reversed single #
loop $-1 -1 $-1 $357 $233 $140 #
plane-surface $-1 -1 $-1 4.444104426132184038 5.521892888887224515 24.48997008518566076 0.9974843329092363264 0.07051493367094265052 0.007256013368105876035 -0.1620808876281473188 2.372212963199431091 -0.7722275850384040519 forward_v I I I I #
loop $-1 -1 $-1 $-1 $358 $87 #
coedge $-1 -1 $-1 $231 $231 $359 $360 reversed $141 $-1 #
coedge $-1 -1 $-1 $232 $232 $361 $362 reversed $143 $-1 #
coedge $-1 -1 $-1 $233 $233 $144 $234 forward $228 $-1 #
edge $-1 -1 $-1 $363 0 $363 6.283185307179586232 $233 $364 forward @7 unknown #
face $-1 -1 $-1 $-1 $365 $50 $-1 $366 reversed single #
loop $-1 -1 $-1 $367 $241 $145 #
plane-surface $-1 -1 $-1 1.813935234732312107 6.852080281995213795 24.48997008518567498 0.8825662739908610721 0.4701320264392658821 0.007256013368105931546 -0.8628494369785408846 1.645618317747319148 -1.672552301544050213 forward_v I I I I #
loop $-1 -1 $-1 $-1 $368 $90 #
coedge $-1 -1 $-1 $239 $239 $369 $370 reversed $146 $-1 #
coedge $-1 -1 $-1 $240 $240 $371 $372 reversed $148 $-1 #
coedge $-1 -1 $-1 $241 $241 $149 $242 forward $236 $-1 #
edge $-1 -1 $-1 $373 0 $373 6.283185307179586232 $241 $374 forward @7 unknown #
face $-1 -1 $-1 $-1 $375 $51 $-1 $376 reversed single #
loop $-1 -1 $-1 $377 $249 $150 #
plane-surface $-1 -1 $-1 -1.12987983783704693 6.997480745151093195 24.48997008518566076 0.6150444884365759979 0.7884590208208620554 0.007256013368105987058 -0.791790070335267715 0.6386590807518033319 -2.283677530452083992 forward_v I I I I #
loop $-1 -1 $-1 $-1 $378 $93 #
coedge $-1 -1 $-1 $247 $247 $379 $380 reversed $151 $-1 #
coedge $-1 -1 $-1 $248 $248 $381 $382 reversed $153 $-1 #
coedge $-1 -1 $-1 $249 $249 $154 $250 forward $244 $-1 #
edge $-1 -1 $-1 $383 0 $383 6.283185307179586232 $249 $384 forward @7 unknown #
face $-1 -1 $-1 $-1 $385 $52 $-1 $386 reversed single #
loop $-1 -1 $-1 $387 $257 $155 #
plane-surface $-1 -1 $-1 -3.878328421808296511 5.932953217353473363 24.48997008518566787 0.2411759233278413794 0.9704542875771969834 0.00725601336810584828 0.004074473194103922502 0.01767923654498950933 -2.499934167785898609 forward_v I I I I #
loop $-1 -1 $-1 $-1 $388 $96 #
coedge $-1 -1 $-1 $255 $255 $389 $390 reversed $156 $-1 #
coedge $-1 -1 $-1 $256 $256 $391 $392 reversed $158 $-1 #
coedge $-1 -1 $-1 $257 $257 $159 $258 forward $252 $-1 #
edge $-1 -1 $-1 $393 0 $393 6.283185307179586232 $257 $394 forward @7 unknown #
face $-1 -1 $-1 $-1 $395 $53 $-1 $396 reversed single #
loop $-1 -1 $-1 $397 $265 $160 #
plane-surface $-1 -1 $-1 -5.956178788141288649 3.842564179087548215 24.48997008518567142 -0.1743941499387568483 0.9846491917110073988 0.007256013368105903791 0.9980897557334813541 0.193605234159036077 -2.283929476320603058 forward_v I I I I #
loop $-1 -1 $-1 $-1 $398 $99 #
coedge $-1 -1 $-1 $263 $263 $399 $400 reversed $161 $-1 #
coedge $-1 -1 $-1 $264 $264 $401 $402 reversed $163 $-1 #
coedge $-1 -1 $-1 $265 $265 $164 $266 forward $260 $-1 #
edge $-1 -1 $-1 $403 0 $403 6.283185307179586232 $265 $404 forward @7 unknown #
face $-1 -1 $-1 $-1 $405 $54 $-1 $406 reversed single #
loop $-1 -1 $-1 $407 $273 $165 #
plane-surface $-1 -1 $-1 -7.004151731819076687 1.087760885657721888 24.48997008518567142 -0.5598098903598294207 0.828589305340901694 0.007256013368105876035 1.532477309675199351 1.05002001728139871 -1.67301262955156238 forward_v I I I I #
loop $-1 -1 $-1 $-1 $408 $102 #
coedge $-1 -1 $-1 $271 $271 $409 $410 reversed $166 $-1 #
coedge $-1 -1 $-1 $272 $272 $411 $412 reversed $168 $-1 #
coedge $-1 -1 $-1 $273 $273 $169 $274 forward $268 $-1 #
edge $-1 -1 $-1 $413 0 $413 6.283185307179586232 $273 $414 forward @7 unknown #
face $-1 -1 $-1 $-1 $415 $55 $-1 $416 reversed single #
loop $-1 -1 $-1 $417 $281 $170 #
plane-surface $-1 -1 $-1 -6.841043210344455616 -1.855126146899739314 24.48997008518567142 -0.8484294150244920951 0.5292588005798299911 0.007256013368105876035 1.253612163135119362 2.020200705918064443 -0.7728167002904637872 forward_v I I I I #
loop $-1 -1 $-1 $-1 $418 $105 #
coedge $-1 -1 $-1 $279 $279 $419 $420 reversed $171 $-1 #
coedge $-1 -1 $-1 $280 $280 $421 $422 reversed $173 $-1 #
coedge $-1 -1 $-1 $281 $281 $174 $282 forward $276 $-1 #
edge $-1 -1 $-1 $423 0 $423 6.283185307179586232 $281 $424 forward @7 unknown #
face $-1 -1 $-1 $-1 $425 $56 $-1 $426 reversed single #
loop $-1 -1 $-1 $427 $289 $175 #
plane-surface $-1 -1 $-1 -5.495056168874792313 -4.47724501536627173 24.48997008518567142 -0.9903477860921582332 0.138414641033248742 0.007256013368105889913 0.346030199999972643 2.462141107725915656 0.2610062572701676298 forward_v I I I I #
loop $-1 -1 $-1 $-1 $428 $108 #
coedge $-1 -1 $-1 $287 $287 $429 $430 reversed $176 $-1 #
coedge $-1 -1 $-1 $288 $288 $431 $432 reversed $178 $-1 #
coedge $-1 -1 $-1 $289 $289 $179 $290 forward $284 $-1 #
edge $-1 -1 $-1 $433 0 $433 6.283185307179586232 $289 $434 forward @7 unknown #
face $-1 -1 $-1 $-1 $435 $57 $-1 $436 reversed single #
loop $-1 -1 $-1 $437 $297 $180 #
plane-surface $-1 -1 $-1 -3.198923994788578362 -6.32520754618193326 24.48997008518567142 -0.9610260279173026277 -0.2763626674055200683 0.007256013368105876035 -0.5896863920859186647 2.083392117161580348 1.249698861781382675 forward_v I I I I #
loop $-1 -1 $-1 $-1 $438 $111 #
coedge $-1 -1 $-1 $295 $295 $439 $440 reversed $181 $-1 #
coedge $-1 -1 $-1 $296 $296 $441 $442 reversed $183 $-1 #
coedge $-1 -1 $-1 $297 $297 $184 $298 forward $292 $-1 #
edge $-1 -1 $-1 $443 0 $443 6.283185307179586232 $297 $444 forward @7 unknown #
face $-1 -1 $-1 $-1 $445 $58 $-1 $446 reversed single #
loop $-1 -1 $-1 $447 $305 $185 #
plane-surface $-1 -1 $-1 -0.3496688006912692659 -7.07948422955613843 24.48997008518567142 -0.7655341388681683457 -0.6433543599738593688 0.007256013368105931546 -0.934337650235722017 1.134586631925490696 2.022307179932850918 forward_v I I I I #
loop $-1 -1 $-1 $-1 $448 $114 #
coedge $-1 -1 $-1 $303 $303 $449 $450 reversed $186 $-1 #
coedge $-1 -1 $-1 $304 $304 $451 $452 reversed $188 $-1 #
coedge $-1 -1 $-1 $305 $305 $189 $306 forward $300 $-1 #
edge $-1 -1 $-1 $453 0 $453 6.283185307179586232 $305 $454 forward @7 unknown #
face $-1 -1 $-1 $-1 $455 $59 $-1 $456 reversed single #
loop $-1 -1 $-1 $457 $313 $190 #
plane-surface $-1 -1 $-1 2.560047305686888208 -6.609653774544955951 24.48997008518566076 -0.4376744425494078494 -0.8991042390118441086 0.007256013368105931546 -0.4598544688460760033 0.2435860431845546792 2.445240214589966321 forward_v I I I I #
loop $-1 -1 $-1 $-1 $458 $117 #
coedge $-1 -1 $-1 $311 $311 $459 $460 reversed $191 $-1 #
coedge $-1 -1 $-1 $312 $312 $461 $462 reversed $193 $-1 #
coedge $-1 -1 $-1 $313 $313 $194 $314 forward $308 $-1 #
edge $-1 -1 $-1 $463 0 $463 6.283185307179586232 $313 $464 forward @7 unknown #
loop $-1 -1 $-1 $465 $321 $195 #
plane-surface $-1 -1 $-1 5.197792270443986062 1.212535515602587373e-15 24.45369001834513867 -0.03413685896636883821 -0.9993908270190957621 0.007256013368105880372 0.5197792270443986062 1.212535515602587472e-16 2.445369001834513778 forward_v I I I I #
loop $-1 -1 $-1 $-1 $319 $120 #
coedge $-1 -1 $-1 $318 $318 $466 $467 forward $198 $-1 #
coedge $-1 -1 $-1 $319 $319 $199 $320 forward $317 $-1 #
edge $-1 -1 $-1 $468 0 $468 6.283185307179586232 $199 $469 forward @7 unknown #
coedge $-1 -1 $-1 $321 $321 $200 $322 forward $315 $-1 #
edge $-1 -1 $-1 $470 0 $470 6.283185307179586232 $321 $471 forward @7 unknown #
vertex $-1 -1 $-1 $202 $472 #
ellipse-curve $-1 -1 $-1 5.131063821021021099 -4.996954135095477589 24.97904388555257071 0.03413685896636883821 0.9993908270190957621 -0.007256013368105880372 8.576357246232577225 2.000683600744269106e-15 40.34858853026947401 1 I I #
loop $-1 -1 $-1 $473 $331 $203 #
plane-surface $-1 -1 $-1 4.748419518433919073 2.114132579485727526 24.45369001834512801 0.3753032976555822908 -0.9268736618541101313 0.007256013368105931546 1.356301823536274043 0.5650188351876652693 2.022671273181915641 forward_v I I I I #
loop $-1 -1 $-1 $-1 $329 $125 #
coedge $-1 -1 $-1 $328 $328 $474 $475 forward $206 $-1 #
coedge $-1 -1 $-1 $329 $329 $207 $330 forward $327 $-1 #
edge $-1 -1 $-1 $476 0 $476 6.283185307179586232 $207 $477 forward @7 unknown #
coedge $-1 -1 $-1 $331 $331 $208 $332 forward $325 $-1 #
edge $-1 -1 $-1 $478 0 $478 6.283185307179586232 $331 $479 forward @7 unknown #
vertex $-1 -1 $-1 $210 $480 #
ellipse-curve $-1 -1 $-1 6.71990439708051035 -2.47795307819510624 24.97904388555256006 -0.3753032976555822908 0.9268736618541101313 -0.007256013368105931546 22.37898008834852348 9.322810780596476832 33.37407600750160697 1 I I #
loop $-1 -1 $-1 $481 $341 $211 #
plane-surface $-1 -1 $-1 3.478001893649570242 3.862712429686844473 24.45369001834513512 0.7198501045894613037 -0.6940916201716770262 0.007256013368105876035 1.496153872092791381 1.564747669958814535 1.250235306004516822 forward_v I I I I #
loop $-1 -1 $-1 $-1 $339 $130 #
coedge $-1 -1 $-1 $338 $338 $482 $483 forward $214 $-1 #
coedge $-1 -1 $-1 $339 $339 $215 $340 forward $337 $-1 #
edge $-1 -1 $-1 $484 0 $484 6.283185307179586232 $215 $485 forward @7 unknown #
coedge $-1 -1 $-1 $341 $341 $216 $342 forward $335 $-1 #
edge $-1 -1 $-1 $486 0 $486 6.283185307179586232 $341 $487 forward @7 unknown #
vertex $-1 -1 $-1 $218 $488 #
ellipse-curve $-1 -1 $-1 7.146812454469866793 0.4695085774221952613 24.97904388555257071 -0.7198501045894613037 0.6940916201716770262 -0.007256013368105876035 24.6865388895310609 25.81833655432044239 20.62888254907452179 1 I I #
loop $-1 -1 $-1 $489 $351 $219 #
plane-surface $-1 -1 $-1 1.606206144797933 4.943394209154330809 24.45369001834512801 0.9399282888069248054 -0.3412948317371476969 0.007256013368105931546 0.8467898477032176352 2.337627157580857595 0.2616222963877509189 forward_v I I I I #
loop $-1 -1 $-1 $-1 $349 $135 #
coedge $-1 -1 $-1 $348 $348 $490 $491 forward $222 $-1 #
coedge $-1 -1 $-1 $349 $349 $223 $350 forward $347 $-1 #
edge $-1 -1 $-1 $492 0 $492 6.283185307179586232 $223 $493 forward @7 unknown #
coedge $-1 -1 $-1 $351 $351 $224 $352 forward $345 $-1 #
edge $-1 -1 $-1 $494 0 $494 6.283185307179586232 $351 $495 forward @7 unknown #
vertex $-1 -1 $-1 $226 $496 #
ellipse-curve $-1 -1 $-1 6.337971711728518365 3.335787934651679443 24.9790438855525565 -0.9399282888069248054 0.3412948317371476969 -0.007256013368105931546 13.97203248710308898 38.57084810008414877 4.316767890397892771 1 I I #
loop $-1 -1 $-1 $497 $361 $227 #
plane-surface $-1 -1 $-1 -0.5433172384139984823 5.169318220532510111 24.45369001834513512 0.9974843329092363264 0.07051493367094265052 0.007256013368105876035 -0.1620808876281473188 2.372212963199431091 -0.7722275850384040519 forward_v I I I I #
loop $-1 -1 $-1 $-1 $359 $140 #
coedge $-1 -1 $-1 $358 $358 $498 $499 forward $230 $-1 #
coedge $-1 -1 $-1 $359 $359 $231 $360 forward $357 $-1 #
edge $-1 -1 $-1 $500 0 $500 6.283185307179586232 $231 $501 forward @7 unknown #
coedge $-1 -1 $-1 $361 $361 $232 $362 forward $355 $-1 #
edge $-1 -1 $-1 $502 0 $502 6.283185307179586232 $361 $503 forward @7 unknown #
vertex $-1 -1 $-1 $234 $504 #
ellipse-curve $-1 -1 $-1 4.433238081363903405 5.625279253297879478 24.97904388555257071 -0.9974843329092363264 -0.07051493367094265052 -0.007256013368105876035 -2.674334645864430815 39.14151389279061277 -12.74175515313366702 1 I I #
loop $-1 -1 $-1 $505 $371 $235 #
plane-surface $-1 -1 $-1 -2.598896135221993031 4.501420149798885717 24.45369001834514577 0.8825662739908610721 0.4701320264392658821 0.007256013368105931546 -0.8628494369785408846 1.645618317747319148 -1.672552301544050213 forward_v I I I I #
loop $-1 -1 $-1 $-1 $369 $145 #
coedge $-1 -1 $-1 $368 $368 $506 $507 forward $238 $-1 #
coedge $-1 -1 $-1 $369 $369 $239 $370 forward $367 $-1 #
edge $-1 -1 $-1 $508 0 $508 6.283185307179586232 $239 $509 forward @7 unknown #
coedge $-1 -1 $-1 $371 $371 $240 $372 forward $365 $-1 #
edge $-1 -1 $-1 $510 0 $510 6.283185307179586232 $371 $511 forward @7 unknown #
vertex $-1 -1 $-1 $242 $512 #
ellipse-curve $-1 -1 $-1 1.761957312027866429 6.942108684991196377 24.97904388555257071 -0.8825662739908610721 -0.4701320264392658821 -0.007256013368105931546 -14.23701571014592382 27.15270224283076317 -27.59711297547683273 1 I I #
loop $-1 -1 $-1 $513 $381 $243 #
plane-surface $-1 -1 $-1 -4.205102280019927363 3.055185641046783473 24.45369001834513512 0.6150444884365759979 0.7884590208208620554 0.007256013368105987058 -0.791790070335267715 0.6386590807518033319 -2.283677530452083992 forward_v I I I I #
loop $-1 -1 $-1 $-1 $379 $150 #
coedge $-1 -1 $-1 $378 $378 $514 $515 forward $246 $-1 #
coedge $-1 -1 $-1 $379 $379 $247 $380 forward $377 $-1 #
edge $-1 -1 $-1 $516 0 $516 6.283185307179586232 $247 $517 forward @7 unknown #
coedge $-1 -1 $-1 $381 $381 $248 $382 forward $375 $-1 #
edge $-1 -1 $-1 $518 0 $518 6.283185307179586232 $381 $519 forward @7 unknown #
vertex $-1 -1 $-1 $250 $520 #
ellipse-curve $-1 -1 $-1 -1.213981883437446285 7.058584457972028048 24.97904388555256006 -0.6150444884365759979 -0.7884590208208620554 -0.007256013368105987058 -13.0645361605319188 10.53787483240475709 -37.68067925245939165 1 I I #
loop $-1 -1 $-1 $521 $391 $251 #
plane-surface $-1 -1 $-1 -5.084208038447503242 1.080681779467489667 24.45369001834513867 0.2411759233278413794 0.9704542875771969834 0.00725601336810584828 0.004074473194103922502 0.01767923654498950933 -2.499934167785898609 forward_v I I I I #
loop $-1 -1 $-1 $-1 $389 $155 #
coedge $-1 -1 $-1 $388 $388 $522 $523 forward $254 $-1 #
coedge $-1 -1 $-1 $389 $389 $255 $390 forward $387 $-1 #
edge $-1 -1 $-1 $524 0 $524 6.283185307179586232 $255 $525 forward @7 unknown #
coedge $-1 -1 $-1 $391 $391 $256 $392 forward $385 $-1 #
edge $-1 -1 $-1 $526 0 $526 6.283185307179586232 $391 $527 forward @7 unknown #
vertex $-1 -1 $-1 $258 $528 #
ellipse-curve $-1 -1 $-1 -3.980012582577246327 5.954566852942826394 24.97904388555256361 -0.2411759233278413794 -0.9704542875771969834 -0.00725601336810584828 0.06722880770271499884 0.2917074029923272249 -41.24891376846733237 1 I I #
loop $-1 -1 $-1 $529 $401 $259 #
plane-surface $-1 -1 $-1 -5.08420803844750413 -1.080681779467489223 24.45369001834513867 -0.1743941499387568483 0.9846491917110073988 0.007256013368105903791 0.9980897557334813541 0.193605234159036077 -2.283929476320603058 forward_v I I I I #
loop $-1 -1 $-1 $-1 $399 $160 #
coedge $-1 -1 $-1 $398 $398 $530 $531 forward $262 $-1 #
coedge $-1 -1 $-1 $399 $399 $263 $400 forward $397 $-1 #
edge $-1 -1 $-1 $532 0 $532 6.283185307179586232 $263 $533 forward @7 unknown #
coedge $-1 -1 $-1 $401 $401 $264 $402 forward $395 $-1 #
edge $-1 -1 $-1 $534 0 $534 6.283185307179586232 $401 $535 forward @7 unknown #
vertex $-1 -1 $-1 $266 $536 #
ellipse-curve $-1 -1 $-1 -6.057862948910239353 3.820950543498198293 24.97904388555256361 0.1743941499387568483 -0.9846491917110073988 -0.007256013368105903791 16.46848096960244234 3.194486363624097436 -37.68483635928995312 1 I I #
loop $-1 -1 $-1 $537 $411 $267 #
plane-surface $-1 -1 $-1 -4.205102280019928251 -3.055185641046787914 24.45369001834514222 -0.5598098903598294207 0.828589305340901694 0.007256013368105876035 1.532477309675199351 1.05002001728139871 -1.67301262955156238 forward_v I I I I #
loop $-1 -1 $-1 $-1 $409 $165 #
coedge $-1 -1 $-1 $408 $408 $538 $539 forward $270 $-1 #
coedge $-1 -1 $-1 $409 $409 $271 $410 forward $407 $-1 #
edge $-1 -1 $-1 $540 0 $540 6.283185307179586232 $271 $541 forward @7 unknown #
coedge $-1 -1 $-1 $411 $411 $272 $412 forward $405 $-1 #
edge $-1 -1 $-1 $542 0 $542 6.283185307179586232 $411 $543 forward @7 unknown #
vertex $-1 -1 $-1 $274 $544 #
ellipse-curve $-1 -1 $-1 -7.088253777419470048 1.026657172836787479 24.97904388555256361 0.5598098903598294207 -0.828589305340901694 -0.007256013368105876035 25.28587560964078662 17.32533028514307816 -27.60470838760078038 1 I I #
loop $-1 -1 $-1 $545 $421 $275 #
plane-surface $-1 -1 $-1 -2.598896135221994363 -4.501420149798890158 24.45369001834513867 -0.8484294150244920951 0.5292588005798299911 0.007256013368105876035 1.253612163135119362 2.020200705918064443 -0.7728167002904637872 forward_v I I I I #
loop $-1 -1 $-1 $-1 $419 $170 #
coedge $-1 -1 $-1 $418 $418 $546 $547 forward $278 $-1 #
coedge $-1 -1 $-1 $419 $419 $279 $420 forward $417 $-1 #
edge $-1 -1 $-1 $548 0 $548 6.283185307179586232 $279 $549 forward @7 unknown #
coedge $-1 -1 $-1 $421 $421 $280 $422 forward $415 $-1 #
edge $-1 -1 $-1 $550 0 $550 6.283185307179586232 $421 $551 forward @7 unknown #
vertex $-1 -1 $-1 $282 $552 #
ellipse-curve $-1 -1 $-1 -6.893021133048897298 -1.945154549895723672 24.97904388555257071 0.8484294150244920951 -0.5292588005798299911 -0.007256013368105876035 20.68460069172946802 33.33331164764805976 -12.75147555479265549 1 I I #
loop $-1 -1 $-1 $553 $431 $283 #
plane-surface $-1 -1 $-1 -0.5433172384140005917 -5.169318220532516328 24.45369001834514222 -0.9903477860921582332 0.138414641033248742 0.007256013368105889913 0.346030199999972643 2.462141107725915656 0.2610062572701676298 forward_v I I I I #
loop $-1 -1 $-1 $-1 $429 $175 #
coedge $-1 -1 $-1 $428 $428 $554 $555 forward $286 $-1 #
coedge $-1 -1 $-1 $429 $429 $287 $430 forward $427 $-1 #
edge $-1 -1 $-1 $556 0 $556 6.283185307179586232 $287 $557 forward @7 unknown #
coedge $-1 -1 $-1 $431 $431 $288 $432 forward $425 $-1 #
edge $-1 -1 $-1 $558 0 $558 6.283185307179586232 $431 $559 forward @7 unknown #
vertex $-1 -1 $-1 $290 $560 #
ellipse-curve $-1 -1 $-1 -5.505922513643070282 -4.580631379776919587 24.97904388555257427 0.9903477860921582332 -0.138414641033248742 -0.007256013368105889913 5.709498299999548721 40.62532827747760678 4.30660324495776603 1 I I #
loop $-1 -1 $-1 $561 $441 $291 #
plane-surface $-1 -1 $-1 1.606206144797935664 -4.943394209154332586 24.45369001834514222 -0.9610260279173026277 -0.2763626674055200683 0.007256013368105876035 -0.5896863920859186647 2.083392117161580348 1.249698861781382675 forward_v I I I I #
loop $-1 -1 $-1 $-1 $439 $180 #
coedge $-1 -1 $-1 $438 $438 $562 $563 forward $294 $-1 #
coedge $-1 -1 $-1 $439 $439 $295 $440 forward $437 $-1 #
edge $-1 -1 $-1 $564 0 $564 6.283185307179586232 $295 $565 forward @7 unknown #
coedge $-1 -1 $-1 $441 $441 $296 $442 forward $435 $-1 #
edge $-1 -1 $-1 $566 0 $566 6.283185307179586232 $441 $567 forward @7 unknown #
vertex $-1 -1 $-1 $298 $568 #
ellipse-curve $-1 -1 $-1 -3.166799871892619578 -6.424075430365020267 24.97904388555257071 0.9610260279173026277 0.2763626674055200683 -0.007256013368105876035 -9.729825469417658468 34.37596993316606842 20.62003121939280703 1 I I #
loop $-1 -1 $-1 $569 $451 $299 #
plane-surface $-1 -1 $-1 3.478001893649572018 -3.862712429686842697 24.45369001834514222 -0.7655341388681683457 -0.6433543599738593688 0.007256013368105931546 -0.934337650235722017 1.134586631925490696 2.022307179932850918 forward_v I I I I #
loop $-1 -1 $-1 $-1 $449 $185 #
coedge $-1 -1 $-1 $448 $448 $570 $571 forward $302 $-1 #
coedge $-1 -1 $-1 $449 $449 $303 $450 forward $447 $-1 #
edge $-1 -1 $-1 $572 0 $572 6.283185307179586232 $303 $573 forward @7 unknown #
coedge $-1 -1 $-1 $451 $451 $304 $452 forward $445 $-1 #
edge $-1 -1 $-1 $574 0 $574 6.283185307179586232 $451 $575 forward @7 unknown #
vertex $-1 -1 $-1 $306 $576 #
ellipse-curve $-1 -1 $-1 -0.2801087628182790112 -7.156738478149878624 24.97904388555257071 0.7655341388681683457 0.6433543599738593688 -0.007256013368105931546 -15.41657122888941522 18.72067942677059449 33.36806846889204081 1 I I #
loop $-1 -1 $-1 $577 $461 $307 #
plane-surface $-1 -1 $-1 4.748419518433928843 -2.114132579485735075 24.45369001834512801 -0.4376744425494078494 -0.8991042390118441086 0.007256013368105931546 -0.4598544688460760033 0.2435860431845546792 2.445240214589966321 forward_v I I I I #
loop $-1 -1 $-1 $-1 $459 $190 #
coedge $-1 -1 $-1 $458 $458 $578 $579 forward $310 $-1 #
coedge $-1 -1 $-1 $459 $459 $311 $460 forward $457 $-1 #
edge $-1 -1 $-1 $580 0 $580 6.283185307179586232 $311 $581 forward @7 unknown #
coedge $-1 -1 $-1 $461 $461 $312 $462 forward $455 $-1 #
edge $-1 -1 $-1 $582 0 $582 6.283185307179586232 $461 $583 forward @7 unknown #
vertex $-1 -1 $-1 $314 $584 #
ellipse-curve $-1 -1 $-1 2.655015696055562202 -6.65193642613466718 24.97904388555257071 0.4376744425494078494 0.8991042390118441086 -0.007256013368105931546 -7.587598735960256136 4.01916971254515154 40.34646354073444741 1 I I #
loop $-1 -1 $-1 $-1 $466 $195 #
coedge $-1 -1 $-1 $466 $466 $318 $467 reversed $465 $-1 #
edge $-1 -1 $-1 $585 0 $585 6.283185307179586232 $318 $586 forward @7 unknown #
vertex $-1 -1 $-1 $320 $587 #
ellipse-curve $-1 -1 $-1 5.027107975612141288 -4.996954135095477589 24.48997008518566787 -0.03413685896636883821 -0.9993908270190957621 0.007256013368105880372 8.94020270516365656 2.085561086836450155e-15 42.06034683155364462 1 I I #
vertex $-1 -1 $-1 $322 $588 #
ellipse-curve $-1 -1 $-1 5.301748115852865872 1.236786225914639073e-15 24.94276381871204151 -0.03413685896636883821 -0.9993908270190957621 0.007256013368105880372 8.576357246232577225 2.000683600744269106e-15 40.34858853026947401 1 I I #
point $-1 -1 $-1 13.70742106725359832 -4.996954135095475813 65.32763241582205183 #
loop $-1 -1 $-1 $-1 $474 $203 #
coedge $-1 -1 $-1 $474 $474 $328 $475 reversed $473 $-1 #
edge $-1 -1 $-1 $589 0 $589 6.283185307179586232 $328 $590 forward @7 unknown #
vertex $-1 -1 $-1 $330 $591 #
ellipse-curve $-1 -1 $-1 6.62493600671183458 -2.520235729784817913 24.48997008518566787 0.3753032976555822908 -0.9268736618541101313 0.007256013368105931546 23.32839136482391496 9.718323965227838812 34.78994589872894494 1 I I #
vertex $-1 -1 $-1 $332 $592 #
ellipse-curve $-1 -1 $-1 4.843387908802600172 2.156415231075444083 24.94276381871203085 0.3753032976555822908 -0.9268736618541101313 0.007256013368105931546 22.37898008834852348 9.322810780596476832 33.37407600750160697 1 I I #
point $-1 -1 $-1 29.09888448542903205 6.8448577024013737 58.35311989305416347 #
loop $-1 -1 $-1 $-1 $482 $211 #
coedge $-1 -1 $-1 $482 $482 $338 $483 reversed $481 $-1 #
edge $-1 -1 $-1 $593 0 $593 6.283185307179586232 $338 $594 forward @7 unknown #
vertex $-1 -1 $-1 $340 $595 #
ellipse-curve $-1 -1 $-1 7.07725241659687665 0.3922543288284575103 24.48997008518566787 0.7198501045894613037 -0.6940916201716770262 0.007256013368105876035 25.73384659999601354 26.91365992329161116 21.50404726327768401 1 I I #
vertex $-1 -1 $-1 $342 $596 #
ellipse-curve $-1 -1 $-1 3.547561931522562162 3.939966678280579337 24.94276381871204151 0.7198501045894613037 -0.6940916201716770262 0.007256013368105876035 24.6865388895310609 25.81833655432044239 20.62888254907452179 1 I I #
point $-1 -1 $-1 31.8333513440009277 26.28784513174263893 45.60792643462708185 #
loop $-1 -1 $-1 $-1 $490 $219 #
coedge $-1 -1 $-1 $490 $490 $348 $491 reversed $489 $-1 #
edge $-1 -1 $-1 $597 0 $597 6.283185307179586232 $348 $598 forward @7 unknown #
vertex $-1 -1 $-1 $350 $599 #
ellipse-curve $-1 -1 $-1 6.30584758883255958 3.236920050468593324 24.48997008518565721 0.9399282888069248054 -0.3412948317371476969 0.007256013368105931546 14.56478538049534066 40.20718711039074833 4.499903497869315316 1 I I #
vertex $-1 -1 $-1 $352 $600 #
ellipse-curve $-1 -1 $-1 1.638330267693893783 5.042262093337418705 24.9427638187120273 0.9399282888069248054 -0.3412948317371476969 0.007256013368105931546 13.97203248710308898 38.57084810008414877 4.316767890397892771 1 I I #
point $-1 -1 $-1 20.31000419883160646 41.90663603473583976 29.29581177595045105 #
loop $-1 -1 $-1 $-1 $498 $227 #
coedge $-1 -1 $-1 $498 $498 $358 $499 reversed $497 $-1 #
edge $-1 -1 $-1 $601 0 $601 6.283185307179586232 $358 $602 forward @7 unknown #
vertex $-1 -1 $-1 $360 $603 #
ellipse-curve $-1 -1 $-1 4.444104426132184038 5.521892888887226292 24.48997008518566076 0.9974843329092363264 0.07051493367094265052 0.007256013368105876035 -2.787791267204133838 40.80206296703021707 -13.28231446266054938 1 I I #
vertex $-1 -1 $-1 $362 $604 #
ellipse-curve $-1 -1 $-1 -0.5541835831822781167 5.272704584943164186 24.94276381871203796 0.9974843329092363264 0.07051493367094265052 0.007256013368105876035 -2.674334645864430815 39.14151389279061277 -12.74175515313366702 1 I I #
point $-1 -1 $-1 1.758903435499473034 44.7667931460884887 12.23728873241890369 #
loop $-1 -1 $-1 $-1 $506 $235 #
coedge $-1 -1 $-1 $506 $506 $368 $507 reversed $505 $-1 #
edge $-1 -1 $-1 $605 0 $605 6.283185307179586232 $368 $606 forward @7 unknown #
vertex $-1 -1 $-1 $370 $607 #
ellipse-curve $-1 -1 $-1 1.813935234732309887 6.85208028199521646 24.48997008518566787 0.8825662739908610721 0.4701320264392658821 0.007256013368105931546 -14.84101031603089993 28.3046350652538905 -28.76789958655766455 1 I I #
vertex $-1 -1 $-1 $372 $608 #
ellipse-curve $-1 -1 $-1 -2.650874057926438709 4.59144855279486741 24.94276381871203796 0.8825662739908610721 0.4701320264392658821 0.007256013368105931546 -14.23701571014592382 27.15270224283076317 -27.59711297547683273 1 I I #
point $-1 -1 $-1 -12.47505839811805828 34.09481092782196754 -2.618069089924259796 #
loop $-1 -1 $-1 $-1 $514 $243 #
coedge $-1 -1 $-1 $514 $514 $378 $515 reversed $513 $-1 #
edge $-1 -1 $-1 $609 0 $609 6.283185307179586232 $378 $610 forward @7 unknown #
vertex $-1 -1 $-1 $380 $611 #
ellipse-curve $-1 -1 $-1 -1.12987983783704693 6.997480745151093195 24.48997008518566076 0.6150444884365759979 0.7884590208208620554 0.007256013368105987058 -13.61878920976660368 10.98493618893101598 -39.27925352377584289 1 I I #
vertex $-1 -1 $-1 $382 $612 #
ellipse-curve $-1 -1 $-1 -4.289204325620326053 3.116289353867719214 24.94276381871203085 0.6150444884365759979 0.7884590208208620554 0.007256013368105987058 -13.0645361605319188 10.53787483240475709 -37.68067925245939165 1 I I #
point $-1 -1 $-1 -14.27851804396936686 17.59645929037678513 -12.70163536690682804 #
loop $-1 -1 $-1 $-1 $522 $251 #
coedge $-1 -1 $-1 $522 $522 $388 $523 reversed $521 $-1 #
edge $-1 -1 $-1 $613 0 $613 6.283185307179586232 $388 $614 forward @7 unknown #
vertex $-1 -1 $-1 $390 $615 #
ellipse-curve $-1 -1 $-1 -3.878328421808297399 5.932953217353475139 24.48997008518566076 0.2411759233278413794 0.9704542875771969834 0.00725601336810584828 0.07008093893858813317 0.3040828685738192205 -42.99886768591746034 1 I I #
vertex $-1 -1 $-1 $392 $616 #
ellipse-curve $-1 -1 $-1 -5.185892199216453058 1.102295415056840033 24.94276381871203085 0.2411759233278413794 0.9704542875771969834 0.00725601336810584828 0.06722880770271499884 0.2917074029923272249 -41.24891376846733237 1 I I #
point $-1 -1 $-1 -3.912783774874531773 6.246274255935151842 -16.26986988291476166 #
loop $-1 -1 $-1 $-1 $530 $259 #
coedge $-1 -1 $-1 $530 $530 $398 $531 reversed $529 $-1 #
edge $-1 -1 $-1 $617 0 $617 6.283185307179586232 $398 $618 forward @7 unknown #
vertex $-1 -1 $-1 $400 $619 #
ellipse-curve $-1 -1 $-1 -5.956178788141288649 3.842564179087548215 24.48997008518567142 -0.1743941499387568483 0.9846491917110073988 0.007256013368105903791 17.16714379861587858 3.330010027535422079 -39.28358699271437615 1 I I #
vertex $-1 -1 $-1 $402 $620 #
ellipse-curve $-1 -1 $-1 -5.185892199216455722 -1.102295415056838923 24.94276381871204151 -0.1743941499387568483 0.9846491917110073988 0.007256013368105903791 16.46848096960244234 3.194486363624097436 -37.68483635928995312 1 I I #
point $-1 -1 $-1 10.41061802069220477 7.015436907122295729 -12.70579247373738063 #
loop $-1 -1 $-1 $-1 $538 $267 #
coedge $-1 -1 $-1 $538 $538 $408 $539 reversed $537 $-1 #
edge $-1 -1 $-1 $621 0 $621 6.283185307179586232 $408 $622 forward @7 unknown #
vertex $-1 -1 $-1 $410 $623 #
ellipse-curve $-1 -1 $-1 -7.004151731819073134 1.087760885657720777 24.48997008518566787 -0.5598098903598294207 0.828589305340901694 0.007256013368105876035 26.35860972641342315 18.06034429724005719 -28.7758172282868756 1 I I #
vertex $-1 -1 $-1 $412 $624 #
ellipse-curve $-1 -1 $-1 -4.2892043256203225 -3.116289353867721879 24.94276381871203796 -0.5598098903598294207 0.828589305340901694 0.007256013368105876035 25.28587560964078662 17.32533028514307816 -27.60470838760078038 1 I I #
point $-1 -1 $-1 18.19762183222131569 18.35198745797986675 -2.625664502048214111 #
loop $-1 -1 $-1 $-1 $546 $275 #
coedge $-1 -1 $-1 $546 $546 $418 $547 reversed $545 $-1 #
edge $-1 -1 $-1 $625 0 $625 6.283185307179586232 $418 $626 forward @7 unknown #
vertex $-1 -1 $-1 $420 $627 #
ellipse-curve $-1 -1 $-1 -6.841043210344452064 -1.855126146899739759 24.48997008518566787 -0.8484294150244920951 0.5292588005798299911 0.007256013368105876035 21.56212920592405524 34.74745214179070985 -13.29244724499597652 1 I I #
vertex $-1 -1 $-1 $422 $628 #
ellipse-curve $-1 -1 $-1 -2.650874057926436933 -4.591448552794874516 24.94276381871204151 -0.8484294150244920951 0.5292588005798299911 0.007256013368105876035 20.68460069172946802 33.33331164764805976 -12.75147555479265549 1 I I #
point $-1 -1 $-1 13.79157955868057073 31.38815709775233742 12.227568330759917 #
loop $-1 -1 $-1 $-1 $554 $283 #
coedge $-1 -1 $-1 $554 $554 $428 $555 reversed $553 $-1 #
edge $-1 -1 $-1 $629 0 $629 6.283185307179586232 $428 $630 forward @7 unknown #
vertex $-1 -1 $-1 $430 $631 #
ellipse-curve $-1 -1 $-1 -5.495056168874791425 -4.477245015366269065 24.48997008518567142 -0.9903477860921582332 0.138414641033248742 0.007256013368105889913 5.951719439999529904 42.34882705288575977 4.489307625046884631 1 I I #
vertex $-1 -1 $-1 $432 $632 #
ellipse-curve $-1 -1 $-1 -0.5541835831822792269 -5.272704584943164186 24.94276381871204507 -0.9903477860921582332 0.138414641033248742 0.007256013368105889913 5.709498299999548721 40.62532827747760678 4.30660324495776603 1 I I #
point $-1 -1 $-1 0.2035757863564779946 36.04469689770068896 29.28564713051034119 #
loop $-1 -1 $-1 $-1 $562 $291 #
coedge $-1 -1 $-1 $562 $562 $438 $563 reversed $561 $-1 #
edge $-1 -1 $-1 $633 0 $633 6.283185307179586232 $438 $634 forward @7 unknown #
vertex $-1 -1 $-1 $440 $635 #
ellipse-curve $-1 -1 $-1 -3.198923994788578362 -6.32520754618193326 24.48997008518567142 -0.9610260279173026277 -0.2763626674055200683 0.007256013368105876035 -10.14260594387780223 35.83434441517917435 21.49482042263977988 1 I I #
vertex $-1 -1 $-1 $442 $636 #
ellipse-curve $-1 -1 $-1 1.638330267693894671 -5.042262093337419593 24.94276381871204151 -0.9610260279173026277 -0.2763626674055200683 0.007256013368105876035 -9.729825469417658468 34.37596993316606842 20.62003121939280703 1 I I #
point $-1 -1 $-1 -12.89662534131027627 27.95189450280104992 45.59907510494538485 #
loop $-1 -1 $-1 $-1 $570 $299 #
coedge $-1 -1 $-1 $570 $570 $448 $571 reversed $569 $-1 #
edge $-1 -1 $-1 $637 0 $637 6.283185307179586232 $448 $638 forward @7 unknown #
vertex $-1 -1 $-1 $450 $639 #
ellipse-curve $-1 -1 $-1 -0.3496688006912689328 -7.079484229556140207 24.48997008518567142 -0.7655341388681683457 -0.6433543599738593688 0.007256013368105931546 -16.07060758405442158 19.5148900691184366 34.78368349484503597 1 I I #
vertex $-1 -1 $-1 $452 $640 #
ellipse-curve $-1 -1 $-1 3.547561931522563938 -3.939966678280581114 24.94276381871204151 -0.7655341388681683457 -0.6433543599738593688 0.007256013368105931546 -15.41657122888941522 18.72067942677059449 33.36806846889204081 1 I I #
point $-1 -1 $-1 -15.69667999170769157 11.56394094862071853 58.34711235444461863 #
loop $-1 -1 $-1 $-1 $578 $307 #
coedge $-1 -1 $-1 $578 $578 $458 $579 reversed $577 $-1 #
edge $-1 -1 $-1 $641 0 $641 6.283185307179586232 $458 $642 forward @7 unknown #
vertex $-1 -1 $-1 $460 $643 #
ellipse-curve $-1 -1 $-1 2.560047305686887764 -6.609653774544952398 24.48997008518566787 -0.4376744425494078494 -0.8991042390118441086 0.007256013368105931546 -7.909496864152504969 4.189679942774340304 42.05813169094741966 1 I I #
vertex $-1 -1 $-1 $462 $644 #
ellipse-curve $-1 -1 $-1 4.843387908802601949 -2.156415231075446748 24.94276381871204151 -0.4376744425494078494 -0.8991042390118441086 0.007256013368105931546 -7.587598735960256136 4.01916971254515154 40.34646354073444741 1 I I #
point $-1 -1 $-1 -4.932583039904696598 -2.632766713589519192 65.32550742628700391 #
vertex $-1 -1 $-1 $467 $645 #
ellipse-curve $-1 -1 $-1 5.197792270443986062 1.212535515602587373e-15 24.45369001834513867 -0.03413685896636883821 -0.9993908270190957621 0.007256013368105880372 8.94020270516365656 2.085561086836450155e-15 42.06034683155364462 1 F 0 F 6.283185307179586232 #
point $-1 -1 $-1 13.96731068077579785 -4.996954135095475813 66.55031691673930538 #
point $-1 -1 $-1 13.87810536208544221 3.237469826658908377e-15 65.29135234898151907 #
vertex $-1 -1 $-1 $475 $646 #
ellipse-curve $-1 -1 $-1 4.748419518433923514 2.114132579485731078 24.45369001834513512 0.3753032976555822908 -0.9268736618541101313 0.007256013368105931546 23.32839136482391496 9.718323965227838812 34.78994589872894494 1 F 0 F 6.283185307179586232 #
point $-1 -1 $-1 29.95332737153574953 7.198088235443023564 59.27991598391461281 #
point $-1 -1 $-1 27.22236799715112099 11.47922601167192092 58.31683982621363072 #
vertex $-1 -1 $-1 $483 $647 #
ellipse-curve $-1 -1 $-1 3.478001893649569798 3.862712429686842697 24.45369001834513867 0.7198501045894613037 -0.6940916201716770262 0.007256013368105876035 25.73384659999601354 26.91365992329161116 21.50404726327768401 1 F 0 F 6.283185307179586232 #
point $-1 -1 $-1 32.81109901659288397 27.30591425212006484 45.99401734846335188 #
point $-1 -1 $-1 28.23410082105361951 29.75830323260102261 45.5716463677865562 #
vertex $-1 -1 $-1 $491 $648 #
ellipse-curve $-1 -1 $-1 1.606206144797933666 4.943394209154333474 24.45369001834513512 0.9399282888069248054 -0.3412948317371476969 0.007256013368105931546 14.56478538049534066 40.20718711039074833 4.499903497869315316 1 F 0 F 6.283185307179586232 #
point $-1 -1 $-1 20.87063296932790024 43.4441071608593461 28.98987358305497608 #
point $-1 -1 $-1 15.61036275479698787 43.61311019342157635 29.2595317091099183 #
vertex $-1 -1 $-1 $499 $649 #
ellipse-curve $-1 -1 $-1 -0.5433172384139987043 5.169318220532512775 24.45369001834513512 0.9974843329092363264 0.07051493367094265052 0.007256013368105876035 -2.787791267204133838 40.80206296703021707 -13.28231446266054938 1 F 0 F 6.283185307179586232 #
point $-1 -1 $-1 1.656313158928049978 46.32395585591744691 11.20765562252511316 #
point $-1 -1 $-1 -3.228518229046708932 44.41421847773377607 12.20100866557837449 #
vertex $-1 -1 $-1 $507 $650 #
ellipse-curve $-1 -1 $-1 -2.598896135221995252 4.501420149798888382 24.45369001834514222 0.8825662739908610721 0.4701320264392658821 0.007256013368105931546 -14.84101031603089993 28.3046350652538905 -28.76789958655766455 1 F 0 F 6.283185307179586232 #
point $-1 -1 $-1 -13.02707508129858915 35.1567153472491043 -4.27792950137199135 #
point $-1 -1 $-1 -16.88788976807235898 31.74415079562563946 -2.654349156764789441 #
vertex $-1 -1 $-1 $515 $651 #
ellipse-curve $-1 -1 $-1 -4.205102280019927363 3.055185641046783473 24.45369001834513512 0.6150444884365759979 0.7884590208208620554 0.007256013368105987058 -13.61878920976660368 10.98493618893101598 -39.27925352377584289 1 F 0 F 6.283185307179586232 #
point $-1 -1 $-1 -14.74866904760365749 17.98241693408211361 -14.78928343859018568 #
point $-1 -1 $-1 -17.35374048615224396 13.65416418627247452 -12.73791543374735724 #
vertex $-1 -1 $-1 $523 $652 #
ellipse-curve $-1 -1 $-1 -5.08420803844750413 1.080681779467489445 24.45369001834513512 0.2411759233278413794 0.9704542875771969834 0.00725601336810584828 0.07008093893858813317 0.3040828685738192205 -42.99886768591746034 1 F 0 F 6.283185307179586232 #
point $-1 -1 $-1 -3.808247482869708822 6.237036085927294415 -18.50889760073179602 #
point $-1 -1 $-1 -5.118663391513738503 1.394002818049166814 -16.30614994975529441 #
vertex $-1 -1 $-1 $531 $653 #
ellipse-curve $-1 -1 $-1 -5.084208038447505018 -1.080681779467489445 24.45369001834513867 -0.1743941499387568483 0.9846491917110073988 0.007256013368105903791 17.16714379861587858 3.330010027535422079 -39.28358699271437615 1 F 0 F 6.283185307179586232 #
point $-1 -1 $-1 11.21096501047458993 7.172574206622969406 -14.7936169075286994 #
point $-1 -1 $-1 11.2825887703859884 2.092190948567257625 -12.74207254057791161 #
vertex $-1 -1 $-1 $539 $654 #
ellipse-curve $-1 -1 $-1 -4.205102280019924699 -3.055185641046787914 24.45369001834513512 -0.5598098903598294207 0.828589305340901694 0.007256013368105876035 26.35860972641342315 18.06034429724005719 -28.7758172282868756 1 F 0 F 6.283185307179586232 #
point $-1 -1 $-1 19.35445799459434824 19.14810518289777974 -4.285847143101207735 #
point $-1 -1 $-1 20.99667128402046501 14.20904093127535717 -2.661944568888742424 #
vertex $-1 -1 $-1 $547 $655 #
ellipse-curve $-1 -1 $-1 -2.598896135221990811 -4.50142014979888927 24.45369001834513867 -0.8484294150244920951 0.5292588005798299911 0.007256013368105876035 21.56212920592405524 34.74745214179070985 -13.29244724499597652 1 F 0 F 6.283185307179586232 #
point $-1 -1 $-1 14.7210859955796014 32.89232599489096742 11.1975228401896878 #
point $-1 -1 $-1 18.03372663380303109 28.74186309485319057 12.19128826391938958 #
vertex $-1 -1 $-1 $555 $656 #
ellipse-curve $-1 -1 $-1 -0.5433172384139997035 -5.16931822053251544 24.45369001834514222 -0.9903477860921582332 0.138414641033248742 0.007256013368105889913 5.951719439999529904 42.34882705288575977 4.489307625046884631 1 F 0 F 6.283185307179586232 #
point $-1 -1 $-1 0.4566632711247375909 37.87158203751948804 28.97927771023255517 #
point $-1 -1 $-1 5.155314716817269272 35.35262369253444348 29.24936706366981198 #
vertex $-1 -1 $-1 $563 $657 #
ellipse-curve $-1 -1 $-1 1.606206144797935664 -4.943394209154332586 24.45369001834514222 -0.9610260279173026277 -0.2763626674055200683 0.007256013368105876035 -10.14260594387780223 35.83434441517917435 21.49482042263977988 1 F 0 F 6.283185307179586232 #
point $-1 -1 $-1 -13.34152993866638326 29.50913686899724553 45.9847905078254513 #
point $-1 -1 $-1 -8.091495201723766684 29.33370783982865504 45.5627950381048521 #
vertex $-1 -1 $-1 $571 $658 #
ellipse-curve $-1 -1 $-1 3.478001893649571574 -3.862712429686845361 24.45369001834514222 -0.7655341388681683457 -0.6433543599738593688 0.007256013368105931546 -16.07060758405442158 19.5148900691184366 34.78368349484503597 1 F 0 F 6.283185307179586232 #
point $-1 -1 $-1 -16.42027638474568363 12.43540583956229462 59.27365358003071094 #
point $-1 -1 $-1 -11.86900929736684773 14.78071274849001782 58.31083228760409298 #
vertex $-1 -1 $-1 $579 $659 #
ellipse-curve $-1 -1 $-1 4.748419518433927067 -2.114132579485731078 24.45369001834513867 -0.4376744425494078494 -0.8991042390118441086 0.007256013368105931546 -7.909496864152504969 4.189679942774340304 42.05813169094741966 1 F 0 F 6.283185307179586232 #
point $-1 -1 $-1 -5.349449558465623866 -2.419973831770614314 66.54810177613308042 #
point $-1 -1 $-1 -2.744210827157653743 1.862754481469706125 65.28922735944647116 #
point $-1 -1 $-1 14.13799497560764173 3.298096602439037923e-15 66.51403684989877263 #
point $-1 -1 $-1 28.07681088325783492 11.832456544713569 59.24363591707408006 #
point $-1 -1 $-1 29.21184849364557579 30.77637235297844498 45.95773728162282623 #
point $-1 -1 $-1 16.1709915252932781 45.15058131954507559 28.95359351621444333 #
point $-1 -1 $-1 -3.331108505618132209 45.97138118756273428 11.17137555568458396 #
point $-1 -1 $-1 -17.43990645125289518 32.80605521505277977 -4.314209568212520551 #
point $-1 -1 $-1 -17.82389148978653282 14.040121829977803 -14.82556350543071666 #
point $-1 -1 $-1 -5.014127099508915997 1.384764648041309831 -18.54517766757232167 #
point $-1 -1 $-1 12.08293576016837356 2.24932824806793219 -14.82989697436923038 #
point $-1 -1 $-1 22.15350744639349756 15.00515865619327016 -4.322127209941736936 #
point $-1 -1 $-1 18.96323307070206354 30.24603199199182413 11.16124277334916037 #
point $-1 -1 $-1 5.4084022015855302 37.17950883235324255 28.94299764339202596 #
point $-1 -1 $-1 -8.536399799079871897 30.89095020602484709 45.94851044098491855 #
point $-1 -1 $-1 -12.59260569040484512 15.65217763943159213 59.23737351319017819 #
point $-1 -1 $-1 -3.161077345718581455 2.075547363288606562 66.51182170929254767 #
End-of-ACIS-data 